<svg style="position: absolute; width: 0; height: 0;" width="0" height="0" version="1.1" xmlns="http://www.w3.org/2000/svg" xmlns:xlink="http://www.w3.org/1999/xlink"><defs><symbol id="uniE001" viewBox="0 -212 1024 1024"><path d="M679 159 l-3 0 l-2 0 l0 -95 q-2 -117 -74 -191 q-71 -75 -183 -77 q-111 2 -181.5 76.5 q-70.5 74.5 -72.5 191.5 l0 95 l-8 0 q-59 2 -99 42 q-38 40 -40 99 l0 362 q2 61 41 102 q40 39 98 40 l529 0 q59 -2 98 -42 q39 -41 41 -100 l0 -362 q-3 -61 -43 -100 q-39 -40 -96 -41 l-5 0 ZM206 63 q2 -101 60 -163 q57 -61 151 -63 q94 2 154 64 q58 63 60 162 l0 94 l-428 0 l0 -94 l3 0 ZM780 662 q-1 42 -28 72 q-27 29 -67 30 l-530 0 q-41 -1 -68 -30.5 q-27 -29.5 -28 -71.5 l0 -362 q1 -43 28 -71.5 q27 -28.5 68 -29.5 l530 0 q40 1 67 30 q27 28 28 71 l0 362 ZM415 355 q-26 1 -42.5 18.5 q-16.5 17.5 -17.5 44.5 q0 17 9 31 q7 15 22 24 l0 103 q0 13 9 22 q10 9 23 10 q13 -1 21 -10 q9 -9 10 -22 l0 -103 q15 -9 23 -23.5 q8 -14.5 8 -31.5 q-4 -26 -22 -44 q-18 -18 -43 -19 Z"></path></symbol><symbol id="uniE002" viewBox="0 -212 1024 1024"><path d="M503 560 q-148 -4 -247 -103 q-99 -99 -103 -247 l0 -361 q1 -22 16 -37 q15 -15 38 -16 l593 0 q23 1 38 16 q15 15 16 37 l0 360 q-4 149 -103 248 q-99 99 -248 103 ZM217 209 q3 122 84 203 q81 81 202 84 q122 -3 203 -84 q81 -81 84 -203 l0 -350 l-573 0 l0 350 ZM478 549 l64 0 l0 233 l-64 0 l0 -233 ZM351 804 q-10 -1 -16 -6 q-5 -6 -6 -16 l0 -21 q1 -9 6 -15 q6 -6 16 -6 l340 0 q9 0 15 6 q6 5 6 15 l0 21 q0 10 -6 16 q-6 5 -15 6 l-340 0 ZM199 369 q-79 -2 -130 -56 q-51 -54 -53 -134 l0 -185 q0 -23 14.5 -38 q14.5 -15 37.5 -16 l122 0 l0 64 l-113 0 l0 178 q1 53 34.5 88.5 q33.5 35.5 85.5 37.5 l0 61 l2 0 ZM804 305 q51 -1 84 -37 q34 -34 36 -89 l0 -177 l-111 0 l0 -64 l121 0 q23 0 37 15 q15 15 16 38 l0 188 q-2 80 -53.5 134 q-51.5 54 -129.5 56 l0 -64 ZM595 324 q-6 0 -12 -1.5 q-6 -1.5 -12 -4.5 l-65 -34 l-68 36 q-16 6 -30 3 q-14 -2 -24 -14 q-5 -5 -7 -14 q-3 -10 0 -25 l12 -71 l-46 -49 q-10 -9 -14 -21.5 q-4 -12.5 1 -25.5 q3 -11 13 -19 q10 -8 23 -10 l68 -11 l31 -65 q6 -13 17 -19 q11 -7 24 -7 q13 0 24 7 q10 6 16 19 l32 65 l67 11 q15 4 24 11 q10 7 13 18 q6 26 -13 45 l-46 51 l12 74 q2 23 -10 39 q-5 6 -13 9 q-8 3 -17 3 ZM506 239 q3 0 7 2 q5 1 8 3 l72 38 q1 0 2 1 l-15 -80 q-2 -6 1 -14 q2 -7 7 -14 l51 -55 l2 -2 l-2 0 l-72 -15 q-8 -2 -14 -6 q-6 -5 -8 -10 l-37 -71 q0 -2 -1 -2 l-3 2 l-36 71 q-4 5 -9.5 9.5 q-5.5 4.5 -13.5 6.5 l-72 11 q-2 0 -2 2 l2 2 l51 56 q5 4 7 11 q1 7 1 16 l-12 76 l0 4 l2 0 l71 -35 q2 -3 6 -5 q3 -2 7 -2 Z"></path></symbol><symbol id="uniE003" viewBox="0 -212 1024 1024"><path d="M604 302 q48 -25 77 -69 q27 -45 28 -102 q-2 -81 -55 -135 q-55 -54 -136 -56 q-80 2 -135 56 q-54 54 -56 135 q1 57 29 102 q29 44 76 69 q-83 29 -133 97 q-51 70 -53 161 q0 10 7 17 q6 6 16 6 q10 0 16.5 -6.5 q6.5 -6.5 7.5 -16.5 q2 -96 65 -160 q65 -63 160 -66 q96 3 160 66.5 q64 63.5 66 159.5 q0 10 7 17 q7 6 16 6 q10 0 17 -6 q7 -7 7 -17 q-2 -91 -53 -161 q-51 -68 -134 -97 ZM373 131 q2 -61 42.5 -102 q40.5 -41 102.5 -43 q61 2 103 43 q41 41 42 102 q-1 62 -42 103 q-42 40 -103 42 q-62 -2 -102 -42 q-41 -41 -43 -103 ZM876 -56 q-71 -73 -163 -110 q-91 -38 -193 -38 q-102 0 -193.5 37.5 q-91.5 37.5 -162.5 110.5 q-73 71 -110 163 q-38 91 -38 193 q0 102 38 193 q37 92 110 163 q71 73 162 110 q92 38 194 38 q102 0 193.5 -37.5 q91.5 -37.5 162.5 -110.5 q72 -71 110 -163 q38 -91 38 -193 q0 -102 -38 -193 q-38 -92 -110 -163 ZM520 758 q-195 -5 -324.5 -134.5 q-129.5 -129.5 -133.5 -323.5 q4 -194 133.5 -323.5 q129.5 -129.5 324.5 -134.5 q194 5 323.5 134.5 q129.5 129.5 134.5 323.5 q-5 194 -135 323 q-129 130 -323 135 Z"></path></symbol><symbol id="uniE004" viewBox="0 -212 1024 1024"><path d="M196 723.94 q10 -60 20 -122 q10 -62 22 -125 q2 -17 -1 -30 q-5 -13 -16 -24 q-43 -41 -84 -83 l-84 -83 q-18 -18 -26 -38 q-8 -21 0 -47 q9 -23 28 -35 q18 -11 43 -15 q59 -8 118 -17 q58 -10 117 -18 q13 -1 21 -7 q8 -7 14 -18 l51 -107 q27 -53 51 -107 q12 -23 28 -37 q18 -13 43 -14 q27 0 45 13.5 q18 13.5 29 37.5 q25 54 52 107 l51 107 q5 11 12 17 q9 7 22 8 q61 10 121 18 q59 9 120 18 q24 4 40 15 q17 12 25 34 q9 23 2 43.5 q-7 20.5 -24 37.5 l-85 85 q-42 43 -86 85 q-12 11 -16 24 q-5 13 -1 30 q11 59 20.5 117.5 q9.5 58.5 18.5 116.5 q5 24 -1 44 q-6 21 -27 35 q-22 16 -44 15 q-22 0 -45 -13 q-103 -58 -209 -112 q-8 -4 -19 -4 q-10 0 -17 4 q-55 27 -108 56 l-107 58 q-44 20 -79 -1 q-35 -21 -35 -69 ZM262 744.94 q10 -5 16 -7 q6 -4 12 -7 q115 -61 230 -123 q12 -7 23 -7 q11 0 24 7 q51 29 103 56 l105 56 l23 12 q10 6 24 13 q-1 -7 -1 -12.5 q0 -5.5 -1 -10.5 l-23 -137 q-11 -68 -24 -137 q-2 -12 2 -22 q3 -9 11 -17 l186 -184 l13 -12 q6 -7 14 -17 q-76 -11 -149 -21.5 q-73 -10.5 -144 -23.5 q-9 -1 -19 -8 q-9 -6 -14 -14 q-12 -23 -23 -46 q-11 -24 -22 -47 q-21 -43 -41.5 -86 q-20.5 -43 -43.5 -88 q-4 7 -7 13 q-3 4 -4 9 q-59 123 -120 245 q-4 8 -11 14 q-9 7 -15 8 q-52 8 -104 16 q-51 7 -102 16 q-44 6 -89 13 q43 45 83 86 q41 42 81 83 q46 43 53 65 q7 23 -7 82 q-10 57 -19 115 q-10 57 -20 118 Z"></path></symbol><symbol id="uniE005" viewBox="0 -212 1024 1024"><path d="M280 804.31 q-48 -102 -34 -171 q13 -69 54 -124 q42 -64 57.5 -113 q15.5 -49 14.5 -52 q3 1 20 41 q16 39 7 108 q58 -70 74 -153 q17 -83 7 -127 q136 100 181 268 q45 168 -30 323 q368 -248 264 -505 q-106 -258 -199 -315 q18 43 16 96 q-1 53 -36 87 q-71 -225 -171 -301 q-101 -75 -110 -70 q12 121 -49 242 q-61 121 -143 220 q-2 -46 -10 -85 q-8 -38 -32 -82 q-10 84 -54 161 q-43 78 -65 162 q-26 115 27 209 q53 92 211 181 Z"></path></symbol><symbol id="uniE006" viewBox="0 -212 1024 1024"><path d="M986 804 q-7 0 -14 -3 q-9 -3 -15 -10 l-928 -928 q-13 -13 -13 -27 q0 -14 13 -27 q12 -13 27 -13 q14 0 27 13 l932 932 q13 13 13 28 q0 13 -13 26 q-6 4 -14 6 q-9 3 -15 3 ZM53 804 q-16 0 -26 -11 q-11 -11 -11 -26 q0 -7 3 -15 q3 -9 10 -15 l928 -928 q13 -10 28 -9 q16 0 26 13 q10 13 10 26 q0 14 -10 24 l-928 928 q-6 7 -13 10 q-7 3 -17 3 Z"></path></symbol><symbol id="uniE007" viewBox="0 -212 1024 1024"><path d="M171 -204 q-66 2 -109.5 46 q-43.5 44 -45.5 109 l0 155 q2 66 45.5 110 q43.5 44 109.5 45 l155 0 q66 -1 109.5 -45 q43.5 -44 45.5 -110 l0 -155 q-2 -65 -45.5 -109 q-43.5 -44 -109.5 -46 l-155 0 ZM714 -204 q-66 2 -110 46 q-44 44 -46 109 l0 155 q2 66 46 110 q44 44 110 45 l154 0 q66 -1 110 -45 q44 -44 46 -110 l0 -155 q-2 -65 -46 -109 q-44 -44 -109 -46 l-155 0 ZM171 338 q-66 2 -109.5 46 q-43.5 44 -45.5 110 l0 154 q2 66 45 111 q44 43 110 45 l155 0 q66 -2 109 -45 q44 -45 46 -111 l0 -154 q-2 -66 -45.5 -110 q-43.5 -44 -109.5 -46 l-155 0 ZM714 338 q-66 2 -110 46 q-44 44 -46 110 l0 154 q2 66 46 110 q44 44 110 46 l154 0 q66 -2 110 -46 q44 -44 46 -110 l0 -154 q-2 -66 -46 -110 q-44 -44 -109 -46 l-155 0 Z"></path></symbol><symbol id="uniE008" viewBox="0 -212 1024 1024"><path d="M520 -66 q-49 1 -82.5 34.5 q-33.5 33.5 -34.5 82.5 q1 49 34 83 q34 33 83 35 q49 -2 82 -35 q34 -34 35 -83 q-1 -49 -35 -83 q-33 -33 -82 -34 ZM520 115 q-26 0 -44 -18 q-16 -17 -16 -42 q0 -27 16 -44 q18 -19 44 -20 q25 1 43 18 q17 16 17 42 q0 27 -17 45 q-18 18 -43 19 ZM520 435 q-49 1 -83 34 q-33 34 -34 83 q1 49 34.5 82.5 q33.5 33.5 82.5 34.5 q49 -1 82 -34 q34 -34 35 -83 q-1 -49 -34.5 -82.5 q-33.5 -33.5 -82.5 -34.5 ZM520 616 q-26 -1 -44 -18 q-16 -16 -16 -43 q0 -26 16 -42 q18 -17 44 -18 q25 1 43 18 q17 16 17 42 q0 27 -17.5 43.5 q-17.5 16.5 -42.5 17.5 ZM886 300 q-1 -49 -34 -83 q-32 -33 -83 -34 q-49 1 -83 34 q-33 34 -35 83 q2 49 35 83 q34 33 83 34 q49 -1 82 -33 q34 -33 35 -84 ZM769 364 q-27 -1 -44 -18 q-16 -16 -17 -43 q1 -26 18 -42 q19 -17 43 -18 q25 1 42 18 q17 16 18 42 q-1 27 -18 43 q-17 17 -42 18 ZM268 183 q-49 1 -83 34 q-33 34 -34 83 q1 49 34 83 q34 33 83 34 q49 -1 82 -34 q34 -34 35 -83 q-1 -49 -34 -83 q-32 -33 -83 -34 ZM268 364 q-26 -1 -44 -18 q-16 -16 -16 -43 q1 -26 18 -42 q18 -17 42 -18 q25 1 43 18 q17 16 17 42 q2 27 -15 43 q-17 17 -45 18 ZM762 744 q117 -68 188.5 -183 q71.5 -115 73.5 -261 q-6 -215 -149 -356 q-143 -143 -355 -148 q-213 5 -356 148 q-142 141 -148 356 q6 215 148.5 357 q142.5 142 355.5 147 l437 0 q15 0 23 -9 q10 -9 10 -22 q0 -12 -9 -20.5 q-9 -8.5 -24 -8.5 l-195 0 ZM76 300 q6 -186 132 -312 q126 -126 312 -132 q186 5 312 130 q126 125 132 314 q-6 189 -132 314 q-126 125 -312 130 q-186 -5 -312 -130 q-126 -125 -132 -314 Z"></path></symbol><symbol id="uniE009" viewBox="0 -212 1024 1024"><path d="M1120 143 q2 11 10 20 q8 9 21 9 q12 0 21 -8 q8 -10 8 -21 q-4 -147 -99 -245 q-95 -98 -240 -102 q-68 0 -130.5 26.5 q-62.5 26.5 -109.5 76.5 q-48 -50 -110 -76.5 q-62 -26.5 -131 -26.5 q-144 4 -240 102 q-95 98 -99 245 q3 84 32 146 q30 63 63 106 q106 143 260 269 q153 124 172 135 q6 5 17 5 q6 0 13 -3 q5 -4 11 -9 q6 -10 5 -22 q-3 -12 -12 -20 q-17 -9 -167 -131 q-149 -122 -250 -257 q-31 -43 -57 -95 q-26 -53 -27 -124 q2 -122 82 -204 q78 -81 197 -83 q65 0 120 27 q57 28 97 78 q9 11 24 11 q14 0 23 -11 q40 -50 97 -78 q56 -27 120 -27 q119 2 197 83 q80 82 82 204 ZM1000 521 l0 -176 q0 -12 -8 -20 q-9 -9 -21 -9 q-13 0 -21 9 q-8 8 -9 20 l0 176 l-176 0 q-14 1 -22 9 q-8 8 -9 21 q1 12 9 20 q8 9 22 9 l176 0 l0 176 q1 12 9 22 q8 7 21 7 q12 0 21 -7 q8 -10 8 -22 l0 -176 l177 0 q12 0 20 -9 q9 -8 9 -20 q0 -13 -8.5 -21 q-8.5 -8 -20.5 -9 l-177 0 Z"></path></symbol><symbol id="uniE0a1" viewBox="0 -212 1024 1024"><path d="M1077 180 q-3 -6 -15 -8 l-300 -43 q-20 -3 -40 -18 q-18 -14 -28 -33 l-133 -270 q-3 -6 -7 -9 q-4 -3 -7 -3 q-6 0 -13 12 l-133 271 q-9 18 -29 33 q-19 14 -40 17 l-298 43 q-7 1 -11 3 q-4 2 -5 5 q-1 3 1 8 q2 4 6 8 l131 128 l86 83 q14 16 22 38 q7 23 4 43 l-51 298 q-2 12 2 16 q3 2 7 2 q5 0 11 -3 l95 -50 l173 -91 q8 -4 20 -7 q11 -2 22 -2 q13 0 23 2 q12 3 20 7 l202 106 l65 35 q7 3 12 3 q5 0 7 -2 q4 -4 2 -16 l-52 -298 q-3 -20 4.5 -42.5 q7.5 -22.5 23.5 -38.5 l105 -102 l111 -109 q8 -8 7 -16 ZM547 -204 q-6 0 -13 12 l-133 271 q-9 18 -29 33 q-19 14 -40 17 l-298 43 q-7 1 -11 3 q-4 2 -5 5 q-1 3 1 8 q2 4 6 8 l131 128 l86 83 q14 16 22 38 q7 23 4 43 l-51 298 q-2 12 2 16 q3 2 7 2 q5 0 11 -3 l95 -50 l173 -91 q8 -4 20 -7 q11 -2 22 -2 l0 -855 Z"></path></symbol><symbol id="uniE0a2" viewBox="0 -212 1024 1024"><path d="M1073 179 q-2 -6 -7 -11 q-5 -4 -12 -5 l-336 -49 l-151 -305 q-4 -6 -9 -9 q-6 -4 -13 -4 q-7 0 -12 4 q-5 3 -8 9 l-151 305 l-337 49 q-6 1 -11 5 q-6 5 -8 11 q-2 7 0 14 q1 6 6 11 l244 237 l-58 335 q-1 7 2 13 q2 6 8 10 q5 4 11 5 q7 0 13 -3 l301 -158 l302 158 q5 3 12 3 q7 -1 12 -5 q6 -4 8 -10 q3 -6 2 -13 l-58 -335 l244 -237 q5 -5 7 -11 q1 -7 -1 -14 ZM782 416 q-4 4 -6 9 q-2 6 -1 12 l51 300 l-270 -142 q-5 -3 -11 -3 l-1 -718 l1 -1 l135 273 q3 5 8 9 q4 3 10 4 l302 45 l-218 212 Z"></path></symbol></defs></svg>